<svg xmlns="http://www.w3.org/2000/svg" viewBox="0 0 168.45 41.21"><g data-name="Layer 2"><g fill="#c00" data-name="Capa 1"><path d="M51.59 10.6c-4.65 0-8.34 1.59-12.33 5.81C37.7 18 24.13 32.33 21.59 34.28A29.57 29.57 0 0 1 14 38.61l-.16.06a14.89 14.89 0 0 1-4.93 1s-.58 0-.58.15c0 0-.11.17.52.4a20.26 20.26 0 0 0 5.85 1h1.07c4.12-.15 7.92-1 10.64-3a104.86 104.86 0 0 0 9-8.39c2.08-2.15 7.5-8.09 7.5-8.09 2.47-2.82 4.53-5 8.44-5a10.41 10.41 0 0 1 6.9 3 1.07 1.07 0 0 0 .62.32 1.52 1.52 0 0 0 .8-.11 6.3 6.3 0 0 0 1.53-1.21 7.74 7.74 0 0 0 1-1.25 2 2 0 0 0 .34-1 1.36 1.36 0 0 0-.38-1 14.42 14.42 0 0 0-10.57-4.89z"/><path d="M60.72 34a7.68 7.68 0 0 0-1.2-1 2 2 0 0 0-1-.4 1.34 1.34 0 0 0-.95.26 9.33 9.33 0 0 1-6.15 2.36A8.29 8.29 0 0 1 43.79 30l-.3-.8c-.22-.44-.51-.36-.66-.22l-3.75 3.94a1.13 1.13 0 0 0-.27 1.41 14.39 14.39 0 0 0 12.33 6.92 14.16 14.16 0 0 0 10.61-4.43.89.89 0 0 0 .15-.35 1.52 1.52 0 0 0-.07-.81A6.26 6.26 0 0 0 60.72 34zm63.18-10.61c-3.42-1.1-6.56-2-6.56-4.08v-.11c0-1.71 1.49-2.92 4.08-2.92a11.62 11.62 0 0 1 6 1.53 1.52 1.52 0 0 0 1.05.2 1.9 1.9 0 0 0 .91-.44 7.41 7.41 0 0 0 1.06-1.09 6 6 0 0 0 1-1.6 1.45 1.45 0 0 0 0-.77 1 1 0 0 0-.38-.55 18.56 18.56 0 0 0-9.48-2.56c-5.79 0-10.37 3.36-10.37 8.88V20c0 5.57 4.8 7.33 9.1 8.55 3.42 1 6.51 1.82 6.51 4.08v.11c0 1.93-1.65 3.14-4.52 3.14a13.54 13.54 0 0 1-7.82-2.38 1.44 1.44 0 0 0-1-.3 1.9 1.9 0 0 0-.93.37 7.37 7.37 0 0 0-1.14 1 6 6 0 0 0-1.07 1.51 1.45 1.45 0 0 0-.07.77 1 1 0 0 0 .32.56 20.45 20.45 0 0 0 11.56 3.77c6.07 0 10.81-3 10.81-9.15v-.11c-.02-5.28-4.82-7.21-9.06-8.53zm25.55 0c-3.42-1.1-6.56-2-6.56-4.08v-.11c0-1.71 1.49-2.92 4.08-2.92a11.62 11.62 0 0 1 6 1.53A1.52 1.52 0 0 0 154 18a1.9 1.9 0 0 0 .91-.44 7.39 7.39 0 0 0 1.09-1.1 6 6 0 0 0 1-1.6 1.45 1.45 0 0 0 0-.77 1 1 0 0 0-.38-.55 18.56 18.56 0 0 0-9.49-2.54c-5.79 0-10.37 3.36-10.37 8.88V20c0 5.57 4.8 7.33 9.1 8.55 3.42 1 6.51 1.82 6.51 4.08v.11c0 1.93-1.65 3.14-4.52 3.14a13.54 13.54 0 0 1-7.85-2.41 1.45 1.45 0 0 0-1-.3 1.9 1.9 0 0 0-.93.37 7.38 7.38 0 0 0-1.14 1 6 6 0 0 0-1.07 1.51 1.44 1.44 0 0 0-.07.77 1 1 0 0 0 .32.56 20.45 20.45 0 0 0 11.56 3.77c6.07 0 10.81-3 10.81-9.15v-.11c.01-5.25-4.78-7.18-9.03-8.5zM73.38.34A5.87 5.87 0 0 0 71.87 0h-.84c-.6 0-1.65.12-1.7.13a2.3 2.3 0 0 0-1.11.49 1.57 1.57 0 0 0-.53.9v37.61A1.27 1.27 0 0 0 68 40a1.5 1.5 0 0 0 .67.51 7.15 7.15 0 0 0 2.22.36 8.77 8.77 0 0 0 1.83-.14 2.29 2.29 0 0 0 1.11-.49 1.58 1.58 0 0 0 .53-.9V1.71a1.27 1.27 0 0 0-.32-.85 1.5 1.5 0 0 0-.66-.52zm-63.2 34.49a9.35 9.35 0 0 1-2.24-2.75 11 11 0 0 1-1.07-3.36c0-.27-.07-.55-.1-.84A15.1 15.1 0 0 1 7 23.11c0-.08 0-.16.06-.23.84-3.45 3.06-5.9 6.14-6.47a7.67 7.67 0 0 1 1.4-.13c5 0 7.07 2.89 7.37 6.29a1 1 0 0 1-.12.54.69.69 0 0 1-.59.27h-7c-1 0-1.7.63-1.71 3 0 2.21.74 3 1.73 3h5.1a1.52 1.52 0 0 0 1-.38l.24-.21c1.63-1.45 5.26-5.36 6.8-6.84a1.8 1.8 0 0 0 .51-1.65c-1.21-5.12-5.08-9.62-13.22-9.62a14.06 14.06 0 0 0-9.93 4A16.12 16.12 0 0 0 0 26.28v.11a19.37 19.37 0 0 0 1.28 6.67 8.21 8.21 0 0 0 .52 1A4.4 4.4 0 0 0 4.56 36a9.8 9.8 0 0 0 5.18-.44c.26-.06.85-.32.44-.73zm154.71-1.33a3.56 3.56 0 1 0 3.56 3.56 3.57 3.57 0 0 0-3.56-3.56zm0 6.51a2.95 2.95 0 1 1 2.95-2.95 3 3 0 0 1-2.95 2.94z"/><path d="M166.29 36.46c0-.64-.47-1-1.23-1h-1.47v3.3h.58v-1.2h.73l.81 1.15h.68l-.89-1.25a1 1 0 0 0 .79-1zm-2.12.59v-1.11h.83c.43 0 .68.19.68.55s-.26.56-.68.56zM92.73 11A25.77 25.77 0 0 0 83 12.68a1.07 1.07 0 0 0-.52.44 1.51 1.51 0 0 0-.21.78 6.26 6.26 0 0 0 .51 1.88 7.74 7.74 0 0 0 .76 1.4 2 2 0 0 0 .79.71 1.38 1.38 0 0 0 .85.11 18.61 18.61 0 0 1 6.6-1.07c4.47 0 7 1.4 7.15 5.73a25.18 25.18 0 0 1 .07 2.91c0 1.59-.14 2.69-.14 2.69v.22a.28.28 0 0 0 0 .06c-.5 7.09-8.32 7.6-8.32 7.6-6 0-6-3.85-6-3.85 0-4.31 4.62-5.21 8.59-5.16a.89.89 0 0 0 1-.75 7.24 7.24 0 0 0 .14-1.38 6.66 6.66 0 0 0-.18-1.66.83.83 0 0 0-.67-.6c-1-.05-1.88-.06-2.6 0-6.78.21-11.7 3.09-11.7 9.37v.11c0 5.84 4.85 9 10.37 9a12 12 0 0 0 9.43-4.53v2.27a1.53 1.53 0 0 0 .52 1 2.26 2.26 0 0 0 1.09.51 8.66 8.66 0 0 0 1.8.17 7.07 7.07 0 0 0 2.2-.32 1.48 1.48 0 0 0 .67-.5 1.26 1.26 0 0 0 .33-.84V23.26c0-7.77-4.2-12.26-12.8-12.26z"/></g></g></svg>